<svg viewBox="0 0 24 24" xmlns="http://www.w3.org/2000/svg" class="gi-input-search__icon gi-icon gi-icon_size-standard">
    <path
        d="M9.164 13.953c.3.285.622.55.965.783L4.02 20.949l-.01-.009a.597.597 0 01-.397.159.62.62 0 01-.459-1.029l-.001-.004.013-.012a.34.34 0 01.033-.036l5.964-6.065zM14.24 2c3.445 0 6.239 2.845 6.239 6.354 0 3.51-2.794 6.354-6.24 6.354C10.795 14.708 8 11.863 8 8.354S10.794 2 14.24 2zm0 1.25c-2.764 0-5.011 2.29-5.011 5.104 0 2.815 2.247 5.104 5.01 5.104 2.765 0 5.012-2.289 5.012-5.104S17.003 3.25 14.24 3.25z"
        fill="white"
        fill-rule="nonzero">
    </path>
</svg>