<svg width="78px" height="20px" viewBox="0 0 78 20" version="1.1" xmlns="http://www.w3.org/2000/svg" xmlns:xlink="http://www.w3.org/1999/xlink">
    <!-- Generator: Sketch 50.2 (55047) - http://www.bohemiancoding.com/sketch -->
    <desc>Created with Sketch.</desc>
    <defs></defs>
    <g id="01-::-Finale" stroke="none" stroke-width="1" fill="none" fill-rule="evenodd">
        <g id="Startseite-neu-1-–-Desktop-Full" transform="translate(-50.000000, -25.000000)" fill="#FFFFFF">
            <g id="Group" transform="translate(50.000000, 25.000000)">
                <polygon id="Fill-1" points="25.4545455 20 29.6969697 20 29.6969697 0.606060606 25.4545455 0.606060606"></polygon>
                <path d="M19.3939394,9.15327755 L10.0193074,9.15327755 L10.0193074,11.4850767 L14.9533017,11.4850767 L14.9533017,16.9103208 C14.5357473,17.2476987 13.283084,17.6690377 11.1577678,17.6690377 C5.84447704,17.6690377 4.89587906,13.5117155 4.89587906,9.972106 C4.89587906,5.92705718 5.84447704,2.33124128 10.3609169,2.33124128 C13.2072819,2.33124128 14.1564509,4.01659693 14.1564509,5.42133891 L19.0898741,5.42133891 C19.0898741,2.24728033 16.4712012,0 10.3609169,0 C2.88405192,0 0,3.76415621 0,9.972106 C0,15.6746165 3.33972156,20 11.1577678,20 C15.2950539,20 18.4070834,18.7924686 19.3939394,18.2309623 L19.3939394,9.15327755" id="Fill-3"></path>
                <path d="M36.3636364,20 L40.6894281,20 L40.6894281,11.6804967 L42.3897353,11.6804967 C46.3460401,11.6804967 46.8632105,12.720452 47.7507021,15.8124073 L48.9336999,20 L53.3333333,20 L51.7808487,14.5476307 C51.1891413,12.4953517 50.7823859,10.8371727 47.2333927,10.2469994 L47.2333927,10.1904801 C49.858321,9.7126477 52.2981582,8.75712243 52.2981582,5.69349655 C52.2981582,1.89874801 48.8969876,0.606060606 44.0905987,0.606060606 L36.3636364,0.606060606 L36.3636364,20 Z M40.6060606,3.03030303 L44.0372514,3.03030303 C46.4986237,3.03030303 47.8787879,4.17078762 47.8787879,6.2762418 C47.8787879,9.25839995 45.0445272,9.6969697 42.3213754,9.6969697 L40.6060606,9.6969697 L40.6060606,3.03030303 Z" id="Fill-4"></path>
                <path d="M56.3636364,20 L60.5920977,20 L62.6715611,14.7438813 L71.2674131,14.7438813 L73.3468765,20 L77.5757576,20 L69.4305515,0.606060606 L64.54326,0.606060606 L56.3636364,20 Z M66.9350076,3.63636364 L67.0043863,3.63636364 L70.3030303,12.1212121 L63.6363636,12.1212121 L66.9350076,3.63636364 Z" id="Fill-5"></path>
            </g>
        </g>
    </g>
</svg>
