<svg viewBox="0 0 24 24" fill="none" xmlns="http://www.w3.org/2000/svg" class="gi-header-navigation-menu-item-language__locale-flag gi-icon gi-icon_size-standard"><g clip-path="url(#clip0_0_2774)"><path d="M22 12a9.944 9.944 0 00-2.066-6.07l-.008-.01a9.936 9.936 0 00-.387-.476c-.07-.081-.143-.158-.216-.237-.102-.11-.202-.224-.31-.33a9.956 9.956 0 00-5.822-2.8c-.023-.002-.047-.007-.07-.01-.252-.028-.509-.04-.767-.048-.119-.005-.233-.019-.353-.019-.122 0-.237.014-.357.018h-.001c-.257.01-.513.02-.764.048-.022.003-.044.008-.065.01a9.97 9.97 0 00-6.156 3.15c-.064.071-.13.14-.192.212a9.926 9.926 0 00-.381.466l-.02.026a9.943 9.943 0 000 12.139v.001l.024.03c.121.157.245.31.373.458.067.076.136.15.204.224a9.984 9.984 0 005.105 2.96h-.002l.013.003c.336.076.677.136 1.024.177.025.004.048.009.074.012a9.607 9.607 0 00.764.049c.12.004.235.017.357.017.12 0 .234-.014.354-.017.258-.01.514-.02.766-.05.026-.002.051-.008.078-.012.344-.041.683-.1 1.017-.175l.015-.003h-.002a9.977 9.977 0 004.784-2.62c.106-.104.202-.214.302-.32.076-.084.154-.164.226-.25.133-.152.258-.308.38-.467l.013-.016A9.94 9.94 0 0022 12zM9.52 3.765A11.914 11.914 0 007.513 6.56a10.45 10.45 0 01-1.404-.813A8.603 8.603 0 019.52 3.764zM5.166 6.796c.56.397 1.154.745 1.78 1.041a11.775 11.775 0 00-.736 3.466H3.432a8.536 8.536 0 011.733-4.507zm0 10.408a8.55 8.55 0 01-1.733-4.506H6.21c.071 1.213.327 2.376.735 3.464-.625.296-1.22.645-1.78 1.042zm.943 1.048c.445-.305.913-.578 1.404-.813a11.858 11.858 0 002.009 2.797 8.593 8.593 0 01-3.413-1.984zm5.195 1.732a10.532 10.532 0 01-2.482-3.062c.79-.253 1.622-.413 2.482-.47v3.532zm0-4.928c-1.065.062-2.09.263-3.06.588a10.38 10.38 0 01-.637-2.946h3.697v2.358zm0-3.753H7.607c.069-1.03.289-2.02.636-2.947.97.325 1.996.526 3.06.588v2.359zm0-3.754c-.86-.058-1.69-.218-2.482-.471a10.53 10.53 0 012.482-3.062v3.533zm9.266 3.754h-2.777a11.815 11.815 0 00-.736-3.466c.626-.296 1.22-.645 1.78-1.041a8.535 8.535 0 011.733 4.507zm-2.676-5.556c-.446.306-.913.58-1.405.814a11.885 11.885 0 00-2.01-2.798 8.595 8.595 0 013.415 1.984zm-5.196-1.732a10.538 10.538 0 012.482 3.064c-.79.252-1.622.412-2.482.47V4.015zm0 4.93a11.78 11.78 0 003.06-.59c.346.929.567 1.917.635 2.947h-3.695V8.944zm0 3.753h3.695a10.375 10.375 0 01-.635 2.946 11.788 11.788 0 00-3.06-.588v-2.358zm0 7.287v-3.533c.86.057 1.69.217 2.482.47a10.559 10.559 0 01-2.482 3.063zm1.782.251c.799-.825 1.476-1.767 2.01-2.797.492.235.96.508 1.405.814a8.61 8.61 0 01-3.415 1.983zm4.357-3.032a11.785 11.785 0 00-1.78-1.041c.409-1.088.665-2.25.736-3.465h2.777a8.533 8.533 0 01-1.733 4.506z" fill="#fff"></path></g><defs><clipPath id="clip0_0_2774"><path fill="white" transform="translate(2 2)" d="M0 0h20v20H0z"></path></clipPath></defs></svg>