<svg viewBox="0 0 20 20" fill="none" xmlns="http://www.w3.org/2000/svg" class="gi-social-link-list__icon gi-icon gi-icon_size-standard"><path fill-rule="evenodd" clip-rule="evenodd" d="M1.667 10a8.333 8.333 0 1016.666 0 8.333 8.333 0 00-16.666 0zM17.5 10a7.5 7.5 0 11-15 0 7.5 7.5 0 0115 0zm-7.33-4.444c-1.178 0-1.326.005-1.788.026-.462.022-.777.097-1.053.207a2.119 2.119 0 00-.768.512c-.24.247-.389.495-.5.788-.108.282-.18.605-.202 1.078-.02.474-.026.626-.026 1.833 0 1.207.006 1.358.026 1.832.022.473.095.796.202 1.079.11.292.259.54.5.787s.483.4.768.513c.276.11.591.185 1.052.207.463.021.61.027 1.788.027s1.325-.006 1.788-.027c.461-.022.777-.097 1.053-.207.285-.113.526-.266.767-.513.242-.247.39-.495.5-.787.107-.283.18-.606.202-1.079.021-.474.026-.625.026-1.832s-.005-1.359-.026-1.833c-.021-.473-.095-.796-.201-1.078a2.187 2.187 0 00-.5-.788 2.114 2.114 0 00-.769-.512c-.276-.11-.591-.185-1.053-.207-.462-.021-.61-.026-1.788-.026h.002zm-.39.8h.39c1.158 0 1.295.005 1.752.026.423.02.652.092.805.153.202.08.347.177.498.332.152.156.246.304.325.512.06.156.13.391.149.825.02.468.025.609.025 1.795s-.004 1.327-.025 1.795c-.02.434-.09.669-.15.825a1.377 1.377 0 01-.324.51 1.338 1.338 0 01-.498.333c-.153.062-.382.134-.805.154-.457.02-.595.025-1.752.025-1.158 0-1.295-.004-1.752-.025-.423-.02-.653-.093-.806-.154a1.342 1.342 0 01-.498-.332 1.382 1.382 0 01-.325-.511c-.059-.156-.13-.392-.149-.825-.02-.469-.025-.61-.025-1.796 0-1.187.004-1.327.025-1.796.02-.433.09-.668.15-.825a1.38 1.38 0 01.324-.51c.152-.156.296-.253.498-.333.153-.062.383-.134.806-.154.4-.018.555-.024 1.363-.025v.001zm2.704.738a.527.527 0 00-.52.534c0 .294.233.533.52.533.288 0 .52-.239.52-.533a.527.527 0 00-.52-.534zm-2.314.624C8.94 7.718 7.943 8.74 7.943 10s.997 2.282 2.227 2.282 2.226-1.021 2.226-2.282c0-1.26-.997-2.282-2.226-2.282zm0 .8c.798 0 1.445.664 1.445 1.482s-.647 1.482-1.445 1.482c-.799 0-1.446-.664-1.446-1.482s.647-1.481 1.446-1.481z" fill="white"></path></svg>