<svg viewBox="0 0 20 20" fill="none" xmlns="http://www.w3.org/2000/svg" class="gi-social-link-list__icon gi-icon gi-icon_size-standard"><path fill-rule="evenodd" clip-rule="evenodd" d="M10 18.333a8.333 8.333 0 110-16.666 8.333 8.333 0 010 16.666zm.634-8.845l2.482-2.821h-.588l-2.155 2.45-1.721-2.45H6.667l2.602 3.704-2.602 2.959h.588l2.276-2.587 1.817 2.587h1.985l-2.699-3.842zm-.805.916l-.264-.37L7.467 7.1h.903l1.693 2.369.264.368 2.201 3.08h-.903l-1.796-2.513zM17.5 10a7.5 7.5 0 11-15 0 7.5 7.5 0 0115 0z" fill="white"></path></svg>