<svg viewBox="0 0 20 20" fill="none" xmlns="http://www.w3.org/2000/svg" class="gi-social-link-list__icon gi-icon gi-icon_size-standard"><path fill-rule="evenodd" clip-rule="evenodd" d="M14.074 7.143c.26.276.345.902.345.902s.086.735.086 1.47v.689c0 .735-.086 1.47-.086 1.47s-.085.626-.345.902c-.297.326-.627.36-.813.378l-.056.006c-1.213.092-3.036.095-3.036.095s-2.254-.021-2.948-.091c-.033-.007-.073-.011-.118-.017-.22-.028-.565-.071-.838-.371-.26-.276-.345-.902-.345-.902s-.087-.735-.087-1.47v-.69c0-.734.087-1.47.087-1.47s.085-.625.345-.9c.297-.327.627-.36.813-.38l.056-.006c1.213-.092 3.034-.092 3.034-.092h.003s1.82 0 3.034.092l.056.006c.186.02.516.053.813.38zm-4.8 1.344v2.552l2.343-1.272-2.343-1.28zM10 18.333a8.333 8.333 0 110-16.666 8.333 8.333 0 010 16.666zm0-.833a7.5 7.5 0 100-15 7.5 7.5 0 000 15z" fill="white"></path></svg>